<?xml version="1.0"?><svg viewBox="0 0 400 400" xmlns="http://www.w3.org/2000/svg" xmlns:xlink="http://www.w3.org/1999/xlink"><style>:root>svg{display:none}:root>svg:target{display:block}</style><svg viewBox="0 0 100 100" id="icons8-facebook" xmlns="http://www.w3.org/2000/svg"><path d="M30.574 16c-7.168 0-13 5.832-13 13v39c0 7.168 5.832 13 13 13h39c7.168 0 13-5.832 13-13V29c0-7.168-5.832-13-13-13h-39zm0 2h39c6.065 0 11 4.935 11 11v39c0 6.065-4.935 11-11 11h-39c-6.065 0-11-4.935-11-11V29c0-6.065 4.935-11 11-11zm2.838 3c-5.976 0-10.838 4.862-10.838 10.838v33.324C22.574 71.138 27.436 76 33.412 76h33.326c5.976 0 10.836-4.862 10.836-10.838V46.5a.5.5 0 00-1 0v18.662c0 5.424-4.412 9.838-9.836 9.838H33.412c-5.424 0-9.838-4.414-9.838-9.838V31.838c0-5.424 4.414-9.838 9.838-9.838h33.662a.5.5 0 000-1H33.412zM52.04 32c-2.443.002-4.335.66-5.621 1.951-1.23 1.236-1.852 2.962-1.844 5.13l.5.056h-.5V43h-2.5a.5.5 0 00-.5.5v5a.5.5 0 00.5.5h2.5v15.5a.5.5 0 00.5.5h7a.5.5 0 00.5-.5V49h3.614a.499.499 0 00.492-.42c.004-.024.393-2.44.578-5.045a.499.499 0 00-.135-.375.496.496 0 00-.365-.16h-5.184v-3.2c.001-.25.474-.8.944-.8h4.556a.5.5 0 00.5-.5v-6a.5.5 0 00-.5-.5H52.04zm0 1h4.535v5h-4.056c-.944 0-1.944.926-1.944 1.8v3.7a.5.5 0 00.5.5h5.145a64.96 64.96 0 01-.461 4h-3.684a.5.5 0 00-.5.5V64h-6V48.5a.5.5 0 00-.5-.5h-2.5v-4h2.5a.5.5 0 00.5-.5v-4.423c-.007-1.893.517-3.378 1.553-4.419 1.093-1.098 2.744-1.655 4.912-1.658zm25.035 3a.5.5 0 00-.5.5v2a.5.5 0 001 0v-2a.5.5 0 00-.5-.5zm0 4a.5.5 0 00-.5.5v4a.5.5 0 001 0v-4a.5.5 0 00-.5-.5z"/></svg><svg viewBox="0 0 50 50" id="icons8-instagram" xmlns="http://www.w3.org/2000/svg"><path d="M16 3C8.832 3 3 8.832 3 16v18c0 7.168 5.832 13 13 13h18c7.168 0 13-5.832 13-13V16c0-7.168-5.832-13-13-13H16zm0 2h18c6.086 0 11 4.914 11 11v18c0 6.086-4.914 11-11 11H16C9.914 45 5 40.086 5 34V16C5 9.914 9.914 5 16 5zm21 6a2 2 0 00-2 2 2 2 0 002 2 2 2 0 002-2 2 2 0 00-2-2zm-12 3c-6.063 0-11 4.937-11 11s4.937 11 11 11 11-4.937 11-11-4.937-11-11-11zm0 2c4.982 0 9 4.018 9 9s-4.018 9-9 9-9-4.018-9-9 4.018-9 9-9z"/></svg><svg viewBox="0 0 64 64" id="icons8-twitter-64" xmlns="http://www.w3.org/2000/svg"><linearGradient id="ca" x1="32" x2="32" y1="9.936" y2="52.195" gradientUnits="userSpaceOnUse"><stop offset="0" stop-color="#1a6dff"/><stop offset="1" stop-color="#c822ff"/></linearGradient><path fill="url(#ca)" d="M57.595 16.086a1 1 0 00-1.17-.271c-.614.271-1.245.512-1.891.719a11.071 11.071 0 001.874-3.491 1 1 0 00-1.457-1.17 19.44 19.44 0 01-5.641 2.223A11.26 11.26 0 0041.555 11c-6.169 0-11.189 4.978-11.189 11.097 0 .404.022.81.067 1.214a28.128 28.128 0 01-19.027-10.103.999.999 0 00-1.634.126 10.99 10.99 0 00-1.519 5.593c0 2.447.807 4.78 2.247 6.68a9.66 9.66 0 01-.859-.412 1 1 0 00-1.476.88v.119c0 3.708 1.868 7.073 4.786 9.104l-.036-.007a1.001 1.001 0 00-1.128 1.293c1.182 3.648 4.149 6.371 7.769 7.332-3.003 1.771-6.401 2.697-9.957 2.697a19.12 19.12 0 01-2.308-.137 1 1 0 00-.656 1.838A30.158 30.158 0 0022.79 53c18.772 0 29.989-15.119 29.989-29.736 0-.271-.005-.541-.014-.81a20.95 20.95 0 004.896-5.169 1 1 0 00-.066-1.199zm-6.428 5.057a1.001 1.001 0 00-.422.865c.02.415.034.834.034 1.256C50.779 36.897 40.31 51 22.79 51a28.15 28.15 0 01-11.499-2.452 21.415 21.415 0 0011.575-4.468c.335-.26.47-.702.336-1.104s-.506-.677-.93-.686c-3.381-.065-6.404-1.952-7.948-4.835a10.907 10.907 0 003.276-.393 1.001 1.001 0 00-.069-1.945c-3.773-.752-6.632-3.773-7.244-7.449 1.122.403 2.297.631 3.468.667a.992.992 0 00.983-.696 1 1 0 00-.399-1.137 9.082 9.082 0 01-3.47-10.862 30.147 30.147 0 0020.714 9.76.961.961 0 00.817-.357 1 1 0 00.207-.868 9.145 9.145 0 01-.24-2.077c0-5.016 4.122-9.097 9.189-9.097a9.239 9.239 0 016.7 2.871c.235.248.581.359.917.296a21.193 21.193 0 004.048-1.209 9.193 9.193 0 01-2.759 2.514 1 1 0 00.632 1.853 22.228 22.228 0 002.797-.525 18.847 18.847 0 01-2.724 2.342z"/><linearGradient id="cb" x1="38.903" x2="38.903" y1="9.936" y2="52.195" gradientUnits="userSpaceOnUse"><stop offset="0" stop-color="#1a6dff"/><stop offset="1" stop-color="#c822ff"/></linearGradient><path fill="url(#cb)" d="M30.772 45.786l.621 1.9c7.123-2.326 12.824-7.914 15.642-15.33l-1.869-.711c-1.53 4.026-5.433 11.214-14.394 14.141z"/><linearGradient id="cc" x1="42" x2="42" y1="17.979" y2="21.528" gradientUnits="userSpaceOnUse"><stop offset="0" stop-color="#6dc7ff"/><stop offset="1" stop-color="#e6abff"/></linearGradient><circle cx="42" cy="20" r="2" fill="url(#cc)"/></svg><svg viewBox="0 0 64 64" id="icons8-twitter-96" xmlns="http://www.w3.org/2000/svg"><linearGradient id="da" x1="32" x2="32" y1="9.936" y2="52.195" gradientUnits="userSpaceOnUse"><stop offset="0" stop-color="#1a6dff"/><stop offset="1" stop-color="#c822ff"/></linearGradient><path fill="url(#da)" d="M57.595 16.086a1 1 0 00-1.17-.271c-.614.271-1.245.512-1.891.719a11.071 11.071 0 001.874-3.491 1 1 0 00-1.457-1.17 19.44 19.44 0 01-5.641 2.223A11.26 11.26 0 0041.555 11c-6.169 0-11.189 4.978-11.189 11.097 0 .404.022.81.067 1.214a28.128 28.128 0 01-19.027-10.103.999.999 0 00-1.634.126 10.99 10.99 0 00-1.519 5.593c0 2.447.807 4.78 2.247 6.68a9.66 9.66 0 01-.859-.412 1 1 0 00-1.476.88v.119c0 3.708 1.868 7.073 4.786 9.104l-.036-.007a1.001 1.001 0 00-1.128 1.293c1.182 3.648 4.149 6.371 7.769 7.332-3.003 1.771-6.401 2.697-9.957 2.697a19.12 19.12 0 01-2.308-.137 1 1 0 00-.656 1.838A30.158 30.158 0 0022.79 53c18.772 0 29.989-15.119 29.989-29.736 0-.271-.005-.541-.014-.81a20.95 20.95 0 004.896-5.169 1 1 0 00-.066-1.199zm-6.428 5.057a1.001 1.001 0 00-.422.865c.02.415.034.834.034 1.256C50.779 36.897 40.31 51 22.79 51a28.15 28.15 0 01-11.499-2.452 21.415 21.415 0 0011.575-4.468c.335-.26.47-.702.336-1.104s-.506-.677-.93-.686c-3.381-.065-6.404-1.952-7.948-4.835a10.907 10.907 0 003.276-.393 1.001 1.001 0 00-.069-1.945c-3.773-.752-6.632-3.773-7.244-7.449 1.122.403 2.297.631 3.468.667a.992.992 0 00.983-.696 1 1 0 00-.399-1.137 9.082 9.082 0 01-3.47-10.862 30.147 30.147 0 0020.714 9.76.961.961 0 00.817-.357 1 1 0 00.207-.868 9.145 9.145 0 01-.24-2.077c0-5.016 4.122-9.097 9.189-9.097a9.239 9.239 0 016.7 2.871c.235.248.581.359.917.296a21.193 21.193 0 004.048-1.209 9.193 9.193 0 01-2.759 2.514 1 1 0 00.632 1.853 22.228 22.228 0 002.797-.525 18.847 18.847 0 01-2.724 2.342z"/><linearGradient id="db" x1="38.903" x2="38.903" y1="9.936" y2="52.195" gradientUnits="userSpaceOnUse"><stop offset="0" stop-color="#1a6dff"/><stop offset="1" stop-color="#c822ff"/></linearGradient><path fill="url(#db)" d="M30.772 45.786l.621 1.9c7.123-2.326 12.824-7.914 15.642-15.33l-1.869-.711c-1.53 4.026-5.433 11.214-14.394 14.141z"/><linearGradient id="dc" x1="42" x2="42" y1="17.979" y2="21.528" gradientUnits="userSpaceOnUse"><stop offset="0" stop-color="#6dc7ff"/><stop offset="1" stop-color="#e6abff"/></linearGradient><circle cx="42" cy="20" r="2" fill="url(#dc)"/></svg></svg>